<?xml version="1.0" standalone="no"?>
<!DOCTYPE svg PUBLIC "-//W3C//DTD SVG 20010904//EN"
 "http://www.w3.org/TR/2001/REC-SVG-20010904/DTD/svg10.dtd">
<svg version="1.0" xmlns="http://www.w3.org/2000/svg"
 width="700.000000pt" height="700.000000pt" viewBox="0 0 700.000000 700.000000"
 preserveAspectRatio="xMidYMid meet">
<metadata>
Created by potrace 1.14, written by Peter Selinger 2001-2017
</metadata>
<g transform="translate(0.000000,700.000000) scale(0.100000,-0.100000)"
fill="#000000" stroke="none">
<path d="M2209 6706 c-2 -2 -40 -6 -84 -10 -44 -3 -91 -8 -105 -11 -14 -3 -41
-8 -60 -11 -165 -29 -364 -96 -534 -180 -631 -315 -1054 -927 -1125 -1629 -9
-89 -7 -368 4 -435 3 -19 7 -51 10 -70 18 -128 76 -344 120 -445 7 -16 26 -59
41 -95 188 -433 595 -834 1039 -1023 282 -120 535 -172 835 -169 168 1 257 10
405 41 613 129 1127 530 1412 1102 58 118 133 321 147 402 3 15 7 35 10 45 14
46 35 175 43 266 16 183 -1 451 -38 613 -6 27 -12 56 -14 66 -2 10 -18 63 -35
118 -119 378 -356 726 -665 973 -38 31 -76 61 -83 67 -8 6 -55 37 -106 69
-205 129 -415 217 -636 266 -91 20 -108 23 -165 30 -27 4 -54 9 -58 11 -10 6
-353 14 -358 9z m286 -590 c364 -42 713 -226 941 -497 63 -74 69 -83 113 -148
61 -89 127 -226 166 -342 19 -54 32 -99 30 -99 -2 0 2 -21 10 -47 7 -27 16
-66 20 -88 11 -65 14 -356 4 -415 -5 -30 -11 -71 -14 -90 -3 -19 -15 -69 -26
-110 -131 -468 -487 -844 -943 -995 -173 -57 -257 -70 -471 -69 -169 0 -202 3
-300 26 -412 97 -749 342 -954 695 -67 117 -140 299 -157 397 -3 17 -10 51
-15 76 -29 130 -29 374 1 527 82 427 357 804 740 1011 172 93 365 153 545 168
39 4 71 7 72 8 5 4 183 -2 238 -8z"/>
<path d="M2020 5539 c-151 -16 -255 -123 -267 -274 -7 -82 22 -158 83 -219 46
-46 130 -86 179 -86 22 0 25 -4 26 -37 0 -21 0 -229 0 -463 1 -489 2 -494 89
-581 157 -157 428 -86 483 129 9 38 12 200 12 678 -1 611 -2 630 -21 674 -40
87 -111 149 -196 170 -48 12 -304 18 -388 9z"/>
<path d="M5212 4260 c-182 -38 -279 -249 -193 -418 38 -74 85 -112 186 -152
458 -180 796 -591 894 -1090 22 -114 30 -321 16 -423 -50 -356 -185 -635 -422
-872 -276 -275 -641 -426 -1027 -425 -105 0 -133 2 -216 14 -303 43 -589 188
-814 412 -147 146 -256 316 -341 529 -38 95 -110 167 -191 191 -193 56 -377
-79 -377 -276 0 -53 8 -85 38 -161 69 -174 169 -349 294 -514 52 -69 240 -260
321 -327 233 -191 608 -367 884 -414 17 -2 38 -7 46 -9 8 -2 31 -6 50 -9 535
-76 1085 59 1508 371 262 193 472 440 617 727 51 101 114 253 131 316 26 98
55 222 60 254 3 22 7 43 9 46 6 11 18 190 20 298 1 104 -14 300 -29 362 -3 14
-8 36 -10 50 -9 54 -48 193 -77 277 -193 547 -626 999 -1163 1213 -85 33 -152
43 -214 30z"/>
<path d="M4847 3244 c-1 -2 -18 -6 -36 -9 -80 -14 -162 -80 -202 -162 -34 -69
-32 -179 3 -249 15 -27 33 -56 42 -63 13 -11 -31 -59 -311 -339 -367 -368
-376 -380 -376 -503 0 -160 132 -291 290 -285 127 5 105 -14 600 479 322 321
459 464 479 501 47 85 39 220 -18 296 -42 56 -265 273 -303 295 -38 22 -73 32
-137 39 -15 2 -29 2 -31 0z"/>
</g>
</svg>
